<?xml version="1.0" encoding="UTF-8"?>
<svg id="_图层_1" data-name="图层 1" xmlns="http://www.w3.org/2000/svg" xmlns:xlink="http://www.w3.org/1999/xlink" viewBox="0 0 1001.95 1001.95">
  <defs>
    <style>
      .cls-1 {
        fill: #c4eaf3;
      }

      .cls-2 {
        fill: #53ba72;
      }

      .cls-3 {
        stroke: #a0a2a3;
      }

      .cls-3, .cls-4, .cls-5, .cls-6 {
        stroke-miterlimit: 10;
      }

      .cls-3, .cls-5 {
        fill: #fff;
      }

      .cls-4 {
        fill: url(#_未命名的渐变_128);
        stroke: url(#_未命名的渐变);
      }

      .cls-7 {
        fill: #e2e2e2;
      }

      .cls-5 {
        stroke: #a7a8a8;
      }

      .cls-8 {
        fill: #f58b42;
      }

      .cls-9 {
        fill: #64b463;
      }

      .cls-10 {
        fill: #abc4cd;
      }

      .cls-11 {
        fill: #7cd168;
      }

      .cls-12 {
        fill: #fbfaf7;
      }

      .cls-6 {
        fill: #fe6c5a;
        stroke: #aaa;
      }

      .cls-13 {
        fill: #81caef;
      }

      .cls-14 {
        fill: #5c7788;
      }
    </style>
    <linearGradient id="_未命名的渐变_128" data-name="未命名的渐变 128" x1="500.59" y1="1001.71" x2="501.35" y2=".24" gradientUnits="userSpaceOnUse">
      <stop offset="0" stop-color="#48dd3f"/>
      <stop offset="1" stop-color="#feff6a"/>
    </linearGradient>
    <linearGradient id="_未命名的渐变" data-name="未命名的渐变" x1="500.59" y1="1002.21" x2="501.35" y2="-.26" gradientUnits="userSpaceOnUse">
      <stop offset="0" stop-color="#fff"/>
      <stop offset="1" stop-color="#231815"/>
    </linearGradient>
  </defs>
  <rect class="cls-4" x=".5" y=".5" width="1000.95" height="1000.95" rx="156" ry="156"/>
  <g>
    <rect class="cls-5" x="144.43" y="145.25" width="445.65" height="709.54" rx="72.28" ry="72.28"/>
    <path class="cls-7" d="M236.61,212.95h260.61c22.73,0,41.19,18.46,41.19,41.19v197.54H236.61c-22.73,0-41.19-18.46-41.19-41.19v-156.35c0-22.73,18.46-41.19,41.19-41.19Z"/>
    <g>
      <g>
        <path class="cls-2" d="M368.02,450.95c2.06-12.57,2.02-24.41-1.82-36.61-4.35-13.82-16.19-30.37-14.44-45.26,1.79-15.19,13.72-23.38,27.96-25.86-.85-13.61-2.68-26.32,4.34-38.83,9.64-17.18,24.05-17.5,38.79-6.07,29.36-33.45,80.07-11.31,68.16,34.37,34.14,2.83,31.76,39.45,16.36,61.89-2,2.92-10.9,11.85-11.39,13.46-1.21,3.99,1.13,9.36,1.02,13.95-.16,6.79-2.68,14-6.69,19.4-.8,1.07-7.09,8.1-7.58,8.38-1.34.78-4.74,1.1-6.45,1.23-20.44,1.58-44.76-.13-65.69-.05l-21.29-2.37h22.47c5.86-17.52,20.98-29.46,36.31-38.79,5.57-3.39,21.32-8.95,22.61-15.3.95-4.67-1.8-9.7-6.57-10.73-9.21-1.98-30.74,12.9-39.33,17.51-1.95-2.38,23.51-45.42,21.25-57.32-1.06-5.58-8.45-6.78-12.97-4.74-3.64,1.64-15.64,27.56-17.96,32.88-10.84,24.85-18.92,51.71-27.11,77.55l-17.62,1.3c-.79,0-1.58,0-2.37,0Z"/>
        <path class="cls-11" d="M370.39,450.95l17.62-1.3c8.19-25.84,16.27-52.7,27.11-77.55,2.32-5.33,14.32-31.24,17.96-32.88,4.52-2.04,11.91-.83,12.97,4.74,2.26,11.9-23.2,54.94-21.25,57.32,8.59-4.61,30.12-19.49,39.33-17.51,4.77,1.03,7.52,6.06,6.57,10.73-1.29,6.35-17.05,11.91-22.61,15.3-15.33,9.33-30.45,21.27-36.31,38.79h-22.47l21.29,2.37c-13.38.05-26.82-.02-40.21,0Z"/>
      </g>
      <g>
        <path class="cls-8" d="M313.62,355.16c19.41,11.53,17.23,26.26,10.04,44.92-6.54,16.97-16.26,32.81-23.04,49.68-20.77-.09-41.81.6-62.68,0-1.55-19-3.54-38.27-2.41-57.4.68-11.52,2.9-33.85,11.29-41.92,2.44-2.35,12.84-7.83,15.96-8.29,10.47-1.52,41.28,7.32,50.85,13.01Z"/>
        <path class="cls-9" d="M262.77,342.15c-.25-14.31-11.09-32.54-11.52-45.84-.39-11.91,10.5-18.65,20.38-10.92,7.33,5.73,7.58,17.15,10.03,25.46.51,1.72-.68,2.08,2.39,1.73.83-12.66,6.59-37.56,23.97-34.02,16.31,3.32,6.14,30.02,2.05,39.93l12.62-10.43c9.67-6.64,22.46-4.65,22.76,8.79s-26.55,26.35-31.83,38.3c-9.57-5.68-40.39-14.53-50.85-13.01Z"/>
      </g>
    </g>
    <g>
      <g>
        <rect class="cls-3" x="565.5" y="564.68" width="293.08" height="293.08" rx="37.87" ry="37.87"/>
        <path class="cls-14" d="M779.86,684.84c12.66-2.1,23.84,14.26,16.85,25.31l-96.52,94.93c-6.4,2.86-9.67,2.87-15.64-.67-6.07-3.59-43.1-39.87-44.87-45.01-3.83-11.14,4.91-23.32,16.31-22.75,11.66.58,27.48,24.04,36.89,31.12l77.38-77.43c2.5-1.94,6.6-5,9.62-5.5Z"/>
        <path class="cls-6" d="M598.55,564.5h222.89c20.45,0,37.05,16.6,37.05,37.05v45.95h-293v-49.95c0-18.24,14.81-33.05,33.05-33.05Z"/>
      </g>
      <g>
        <path class="cls-1" d="M498.09,576.3c.55,12.68.97,21.15,7.33,32.29,9.7,17.01,19.91,25.89,22.1,47.68,3.76,37.54-2.28,80.88-.14,119.01-3.27,15.06-16.39,29.91-32.23,31.63-13.93,1.51-42.57,1.16-56.82.04-20.83-1.63-34.46-18.13-36.06-38.44,2.34-35.93-3.06-75.57.19-111.05,2.17-23.68,11.7-30.62,22.09-48.87,5.93-10.42,7.9-20.24,7.33-32.29,19.95,2.69,45.64-2.01,66.22,0ZM433.89,656.96c-7.05,2.25-8.51,9.2-9.1,15.73-1.85,20.62-.15,47.81,1.15,68.58.56,8.97-3.39,21.64,8.86,23.07,13.38,1.57,45.51,1.29,59.21.03,6.27-.57,10.44-3.57,11.21-10.08-1.96-27.43,2.52-58.21.03-85.23-.52-5.63-4.25-11.35-10.18-12.29-17.76-2.82-42.65,1.75-61.18.18Z"/>
        <path class="cls-13" d="M498.09,576.3c-20.58-2.01-46.28,2.69-66.22,0-9.18-1.24-9.58-11.99-8.22-19.45,1.07-5.87,7-8.48,12.3-8.99,14.52-1.38,44.67-1.33,59.24,0,11.25,1.03,12.36,9.83,11.2,19.6-.59,5.01-3.18,8.15-8.3,8.84Z"/>
        <path class="cls-12" d="M433.89,656.96c18.53,1.57,43.42-3,61.18-.18,5.93.94,9.66,6.67,10.18,12.29,2.49,27.02-1.99,57.79-.03,85.23-.77,6.51-4.94,9.51-11.21,10.08-13.7,1.26-45.83,1.54-59.21-.03-12.24-1.43-8.3-14.1-8.86-23.07-1.3-20.77-3-47.97-1.15-68.58.59-6.53,2.05-13.48,9.1-15.73Z"/>
      </g>
    </g>
    <path class="cls-10" d="M214.3,570.17c12.26-1.99,22.63,5.69,23.97,18.04,1.92,17.75,1.77,60.09-.15,77.9-1.6,14.82-11.16,23.16-26.38,20.77-8.27-1.3-13.98-10.41-14.86-18.25-1.83-16.23-1.96-64.28.31-80.11,1.33-9.23,7.66-16.82,17.12-18.35Z"/>
  </g>
</svg>